<svg xmlns="http://www.w3.org/2000/svg" style="display:none">
  <defs>
    <g id="ic-stroke-defaults" stroke="currentColor" stroke-width="1.8" fill="none" stroke-linecap="round" stroke-linejoin="round"></g>
  </defs>

  <symbol id="message" viewBox="0 0 24 24">
    <path d="M4 5h16v11H8l-4 4V5z" stroke="currentColor" stroke-width="1.8" fill="none" stroke-linejoin="round"/>
    <line x1="7.5" y1="9" x2="16.5" y2="9" stroke="currentColor" stroke-width="1.8" stroke-linecap="round"/>
    <line x1="7.5" y1="12.5" x2="13.5" y2="12.5" stroke="currentColor" stroke-width="1.8" stroke-linecap="round"/>
  </symbol>

  <symbol id="member" viewBox="0 0 24 24">
    <circle cx="12" cy="8" r="3.4" stroke="currentColor" stroke-width="1.8" fill="none"/>
    <path d="M5 20c0-3.9 3.1-7 7-7s7 3.1 7 7" stroke="currentColor" stroke-width="1.8" fill="none" stroke-linecap="round"/>
  </symbol>

  <symbol id="mod" viewBox="0 0 24 24">
    <path d="M12 3l7 3v5c0 4.5-3 8.2-7 9.5-4-1.3-7-5-7-9.5V6l7-3z" stroke="currentColor" stroke-width="1.8" fill="none" stroke-linejoin="round"/>
    <path d="M9.2 12.2l1.9 1.9 3.7-3.9" stroke="currentColor" stroke-width="1.8" fill="none" stroke-linecap="round" stroke-linejoin="round"/>
  </symbol>

  <symbol id="role" viewBox="0 0 24 24">
    <path d="M12 3l2.4 4.9 5.4.8-3.9 3.8.9 5.4-4.8-2.6-4.8 2.6.9-5.4-3.9-3.8 5.4-.8L12 3z" stroke="currentColor" stroke-width="1.8" fill="none" stroke-linejoin="round"/>
  </symbol>

  <symbol id="voice" viewBox="0 0 24 24">
    <path d="M5 10v4h3.2L13 17.6V6.4L8.2 10H5z" stroke="currentColor" stroke-width="1.8" fill="none" stroke-linejoin="round"/>
    <path d="M16.2 9a4.2 4.2 0 010 6" stroke="currentColor" stroke-width="1.8" fill="none" stroke-linecap="round"/>
    <path d="M18.4 6.7a7.6 7.6 0 010 10.6" stroke="currentColor" stroke-width="1.8" fill="none" stroke-linecap="round"/>
  </symbol>

  <symbol id="server" viewBox="0 0 24 24">
    <rect x="4" y="4.5" width="16" height="5.5" rx="1.4" stroke="currentColor" stroke-width="1.8" fill="none"/>
    <rect x="4" y="13.5" width="16" height="5.5" rx="1.4" stroke="currentColor" stroke-width="1.8" fill="none"/>
    <circle cx="7.4" cy="7.25" r="0.9" fill="currentColor"/>
    <circle cx="7.4" cy="16.25" r="0.9" fill="currentColor"/>
  </symbol>

  <symbol id="channel" viewBox="0 0 24 24">
    <line x1="9" y1="4" x2="7" y2="20" stroke="currentColor" stroke-width="1.8" stroke-linecap="round"/>
    <line x1="17" y1="4" x2="15" y2="20" stroke="currentColor" stroke-width="1.8" stroke-linecap="round"/>
    <line x1="4.5" y1="9" x2="19.5" y2="9" stroke="currentColor" stroke-width="1.8" stroke-linecap="round"/>
    <line x1="3.5" y1="15" x2="18.5" y2="15" stroke="currentColor" stroke-width="1.8" stroke-linecap="round"/>
  </symbol>

  <symbol id="emoji" viewBox="0 0 24 24">
    <circle cx="12" cy="12" r="8" stroke="currentColor" stroke-width="1.8" fill="none"/>
    <path d="M8.5 14c.9 1.2 2.1 1.8 3.5 1.8s2.6-.6 3.5-1.8" stroke="currentColor" stroke-width="1.8" fill="none" stroke-linecap="round"/>
    <circle cx="9.2" cy="9.8" r="1" fill="currentColor"/>
    <circle cx="14.8" cy="9.8" r="1" fill="currentColor"/>
  </symbol>

  <symbol id="sticker" viewBox="0 0 24 24">
    <path d="M5 5h9l5 5v9H5V5z" stroke="currentColor" stroke-width="1.8" fill="none" stroke-linejoin="round"/>
    <path d="M14 5v5h5" stroke="currentColor" stroke-width="1.8" fill="none" stroke-linejoin="round"/>
  </symbol>

  <symbol id="invite" viewBox="0 0 24 24">
    <rect x="3.5" y="6" width="17" height="12" rx="1.6" stroke="currentColor" stroke-width="1.8" fill="none"/>
    <path d="M4.5 7.2L12 13l7.5-5.8" stroke="currentColor" stroke-width="1.8" fill="none" stroke-linecap="round" stroke-linejoin="round"/>
  </symbol>

  <symbol id="boost" viewBox="0 0 24 24">
    <path d="M12 3c2.5 3 4 6.3 4 9a4 4 0 11-8 0c0-2.7 1.5-6 4-9z" stroke="currentColor" stroke-width="1.8" fill="none" stroke-linejoin="round"/>
    <path d="M10.5 20.5h3" stroke="currentColor" stroke-width="1.8" stroke-linecap="round"/>
  </symbol>

  <symbol id="event" viewBox="0 0 24 24">
    <rect x="4" y="5.5" width="16" height="14" rx="1.6" stroke="currentColor" stroke-width="1.8" fill="none"/>
    <line x1="4" y1="10" x2="20" y2="10" stroke="currentColor" stroke-width="1.8"/>
    <line x1="8" y1="3.5" x2="8" y2="7.5" stroke="currentColor" stroke-width="1.8" stroke-linecap="round"/>
    <line x1="16" y1="3.5" x2="16" y2="7.5" stroke="currentColor" stroke-width="1.8" stroke-linecap="round"/>
  </symbol>

  <symbol id="automod" viewBox="0 0 24 24">
    <path d="M12 3l7 3v5c0 4.5-3 8.2-7 9.5-4-1.3-7-5-7-9.5V6l7-3z" stroke="currentColor" stroke-width="1.8" fill="none" stroke-linejoin="round"/>
    <line x1="9" y1="9" x2="15" y2="15" stroke="currentColor" stroke-width="1.8" stroke-linecap="round"/>
    <line x1="15" y1="9" x2="9" y2="15" stroke="currentColor" stroke-width="1.8" stroke-linecap="round"/>
  </symbol>

  <symbol id="thread" viewBox="0 0 24 24">
    <circle cx="7" cy="6.5" r="2" stroke="currentColor" stroke-width="1.8" fill="none"/>
    <circle cx="7" cy="17.5" r="2" stroke="currentColor" stroke-width="1.8" fill="none"/>
    <path d="M7 8.5v7" stroke="currentColor" stroke-width="1.8" stroke-linecap="round"/>
    <path d="M9 6.5h4a4 4 0 014 4v.5" stroke="currentColor" stroke-width="1.8" fill="none" stroke-linecap="round"/>
  </symbol>

  <symbol id="add-bot" viewBox="0 0 24 24">
    <rect x="4" y="9" width="16" height="10" rx="2.4" stroke="currentColor" stroke-width="1.8" fill="none"/>
    <line x1="12" y1="4" x2="12" y2="9" stroke="currentColor" stroke-width="1.8" stroke-linecap="round"/>
    <circle cx="12" cy="3" r="1.2" fill="currentColor"/>
    <circle cx="9" cy="14" r="1.3" fill="currentColor"/>
    <circle cx="15" cy="14" r="1.3" fill="currentColor"/>
  </symbol>

  <symbol id="check-circle" viewBox="0 0 24 24">
    <circle cx="12" cy="12" r="8.5" stroke="currentColor" stroke-width="1.8" fill="none"/>
    <path d="M8.3 12.3l2.4 2.4 5-5.2" stroke="currentColor" stroke-width="1.8" fill="none" stroke-linecap="round" stroke-linejoin="round"/>
  </symbol>

  <symbol id="alert" viewBox="0 0 24 24">
    <path d="M12 4l9 15.5H3L12 4z" stroke="currentColor" stroke-width="1.8" fill="none" stroke-linejoin="round"/>
    <line x1="12" y1="10" x2="12" y2="14" stroke="currentColor" stroke-width="1.8" stroke-linecap="round"/>
    <circle cx="12" cy="17" r="0.9" fill="currentColor"/>
  </symbol>

  <symbol id="logout" viewBox="0 0 24 24">
    <path d="M9 4H5.5A1.5 1.5 0 004 5.5v13A1.5 1.5 0 005.5 20H9" stroke="currentColor" stroke-width="1.8" fill="none" stroke-linecap="round"/>
    <path d="M13.5 8l4 4-4 4" stroke="currentColor" stroke-width="1.8" fill="none" stroke-linecap="round" stroke-linejoin="round"/>
    <line x1="17.3" y1="12" x2="9.5" y2="12" stroke="currentColor" stroke-width="1.8" stroke-linecap="round"/>
  </symbol>

  <symbol id="chevron-down" viewBox="0 0 24 24">
    <path d="M6 9l6 6 6-6" stroke="currentColor" stroke-width="1.8" fill="none" stroke-linecap="round" stroke-linejoin="round"/>
  </symbol>
</svg>
